<?xml version="1.0" encoding="utf-8"?>
<svg version="1.1" xmlns:xlink="http://www.w3.org/1999/xlink" width="104px" height="40px" xmlns="http://www.w3.org/2000/svg">
  <defs>
    <mask fill="white" id="clip8">
      <path d="M 0 35  L 0 5  C 0 2.20000000000005  1.63428571428575 0  3.71428571428571 0  L 82.415873015873 0  L 100.285714285714 0  C 102.365714285714 0  104 2.20000000000005  104 5  L 104 35  C 104 37.8  102.365714285714 40  100.285714285714 40  L 3.71428571428571 40  C 1.63428571428575 40  0 37.8  0 35  Z " fill-rule="evenodd" />
    </mask>
  </defs>
  <g transform="matrix(1 0 0 1 -329 -835 )">
    <path d="M 0 35  L 0 5  C 0 2.20000000000005  1.63428571428575 0  3.71428571428571 0  L 82.415873015873 0  L 100.285714285714 0  C 102.365714285714 0  104 2.20000000000005  104 5  L 104 35  C 104 37.8  102.365714285714 40  100.285714285714 40  L 3.71428571428571 40  C 1.63428571428575 40  0 37.8  0 35  Z " fill-rule="nonzero" fill="#ffff00" stroke="none" transform="matrix(1 0 0 1 329 835 )" />
    <path d="M 0 35  L 0 5  C 0 2.20000000000005  1.63428571428575 0  3.71428571428571 0  L 82.415873015873 0  L 100.285714285714 0  C 102.365714285714 0  104 2.20000000000005  104 5  L 104 35  C 104 37.8  102.365714285714 40  100.285714285714 40  L 3.71428571428571 40  C 1.63428571428575 40  0 37.8  0 35  Z " stroke-width="2" stroke="#ffffff" fill="none" transform="matrix(1 0 0 1 329 835 )" mask="url(#clip8)" />
  </g>
</svg>